<svg version="1.1" id="Layer_2" xmlns="http://www.w3.org/2000/svg" xmlns:xlink="http://www.w3.org/1999/xlink" x="0px" y="0px"
	 width="256.487px" height="335.983px" viewBox="0 0 256.487 335.983" style="enable-background:new 0 0 256.487 335.983;"
	 xml:space="preserve">
	<defs> 
		<style type="text/css">
			.st0{fill:none;stroke:#FFF;stroke-miterlimit:5;}
			.st0{
				stroke-dasharray:1500;
				stroke-dashoffset:0;
				animation:dash 8s linear forwards;
			}
			@keyframes dash{
				from{stroke-dashoffset:1500;}
				
				to{stroke-dashoffset:0;}
			}
		</style>
	</defs>
<path class="st0" stroke-width="1" d="M100.573,246.404l4.083-0.75c0,0,1.219-0.219,7.25-2.5c9-2.25,30.75-12.25,37-14s23.25-17.75,23.25-17.75
	c9.5-13.25,7-43.5,7-43.5c7.25,7.75,13,0.25,21.75-6.25s9-27.25,8.75-35.5s-10.709-7-10.709-7l-0.791-18.5
	c7.25-36.25-37.75-65.5-37.75-65.5l-9.75-1c-4.25-5.25-7-5.25-7-5.25s-6.5,0.5-8.75-1.5s-7.75-4.25-7.75-4.25l-5.75,2.5l-5-1.25
	l-5.5,1.75l-6.5-1.75c0,0-7,3-8.75,2.75s-8.5-0.25-11.5,0s-6.5,5.75-11.5,5.75s-0.5,5.5-7.75,6.5s-8,2.5-9.25,11.25s6.5,7.5-1,10.25
	s-5.25,6.5-4,10.5s4.75,7.25,4.75,7.25c-4.25,10.5-4.5,20.5-4.5,25.75s-1.25,7.5-1.25,7.5c-4,10.75,2.75,19.75,2.75,19.75l3,7.75
	v10.5c-4.75,15.5,2.75,33,2.75,33l1.25,13l2.5,8.5l4,11.333l4,10c3.334,19.333,11.333,20.667,11.333,20.667H100.573l12.066,52.054
	l-1.732,0.071v9.538l-11.333,8.087l11.333-8.087v-9.538c0,0,16,0.537,43.667-16.796s65.332-35,65.332-33.333
	s-32.333-17.666-30.999-50.333s1.19-28.277,1.19-28.277l10.809-8.136l3.041-3.266l2.184-4.193l1.814-5.936l0.558-2.782l0.33-2.088
	l0.256-2.003l0.389-4.31l0.156-3.032l0.061-2.31l-0.038-5.581l-0.081-0.966l-0.155-0.8l-0.183-0.605l-0.327-0.756l-0.514-0.838
	l-0.554-0.644l-0.424-0.391l-0.529-0.396l-0.896-0.529l-0.845-0.366l-0.699-0.234l-1.242-0.295l-0.835-0.128l-0.969-0.088
	l-2.456,0.036l-9.708,3.917l-4.333,6.666l-1.5,6.667h-4.5v-9c-0.5-18-24.5-25.5-24.5-25.5l-23-15.5l2-7.75c0,0,6.5-21.25,5-21.75
	s-18-6-35-7.5s-24.5,3.5-33.5,9s-14.5,20.25-14.5,20.25"/>
</svg>
